<?xml version="1.0" standalone="no"?><!DOCTYPE svg PUBLIC "-//W3C//DTD SVG 1.1//EN" "http://www.w3.org/Graphics/SVG/1.1/DTD/svg11.dtd"><svg t="1777437037064" class="icon" viewBox="0 0 1024 1024" version="1.1" xmlns="http://www.w3.org/2000/svg" p-id="7378" xmlns:xlink="http://www.w3.org/1999/xlink" width="200" height="200"><path d="M511.936 559.104l-169.344 169.344a32 32 0 0 1-22.4 9.6 32 32 0 0 1-22.72-54.72l169.344-169.344-169.344-169.344a32 32 0 0 1 45.12-45.12l169.344 169.312L681.6 299.2a32 32 0 1 1 45.12 45.12l-169.632 169.664 169.632 169.664a32 32 0 0 1-22.4 54.4 32 32 0 0 1-22.72-9.28l-169.664-169.664z" fill="#202425" p-id="7379"></path></svg>