<?xml version="1.0" standalone="no"?><!DOCTYPE svg PUBLIC "-//W3C//DTD SVG 1.1//EN" "http://www.w3.org/Graphics/SVG/1.1/DTD/svg11.dtd"><svg t="1776948747375" class="icon" viewBox="0 0 1024 1024" version="1.1" xmlns="http://www.w3.org/2000/svg" p-id="1609" xmlns:xlink="http://www.w3.org/1999/xlink" width="200" height="200"><path d="M740.395 188c88.365 0 160 71.635 160 160v329.347c-0.001 88.365-71.635 159.999-160 160H280c-88.366 0-160-71.635-160-160V348c0-88.365 71.634-160 160-160h460.395zM280 252c-53.019 0-96 42.981-96 96v329.347c0 53.019 42.981 96 96 96h134.051V252H280z m198.051 521.347h262.344c53.019-0.001 95.999-42.981 96-96V348c0-53.019-42.981-96-96-96H478.051v521.347zM337.367 456.266c17.673 0 32 14.326 32 32 0 17.673-14.327 32-32 32H264.33c-17.673-0.001-32-14.327-32-32 0-17.673 14.327-32 32-32h73.037z m0-122.86c17.673 0 32 14.327 32 32 0 17.673-14.327 32-32 32H264.33c-17.673 0-32-14.327-32-32 0-17.673 14.327-32 32-32h73.037z" fill="#000000" p-id="1610"></path></svg>