<svg t="1778818521008" class="icon" viewBox="0 0 1024 1024" version="1.1" xmlns="http://www.w3.org/2000/svg" p-id="7369" width="200" height="200"><path d="M511.4368 572.4672a183.552 183.552 0 0 1-183.296-183.296 183.4496 183.4496 0 0 1 183.296-183.2448 183.552 183.552 0 0 1 183.296 183.3472 183.4496 183.4496 0 0 1-183.296 183.1936z m0-309.4528A126.3616 126.3616 0 0 0 385.1264 389.12a126.464 126.464 0 0 0 126.3104 126.2592 126.3616 126.3616 0 0 0 126.2592-126.1568A126.464 126.464 0 0 0 511.488 262.9632z" fill="#000000" p-id="7370"></path><path d="M735.6928 761.1392a28.5184 28.5184 0 0 1-29.184-23.8592 197.1712 197.1712 0 0 0-388.9664-0.768 28.5184 28.5184 0 0 1-56.2176-9.2672 254.2592 254.2592 0 0 1 501.504 0.9728 28.5184 28.5184 0 0 1-27.136 32.9216z" fill="#000000" p-id="7371"></path><path d="M662.2208 159.4368h185.4464a16.896 16.896 0 0 1 16.896 16.896v161.1776a28.5184 28.5184 0 1 0 57.0368 0V176.3328C921.6 135.5264 888.4736 102.4 847.6672 102.4h-185.4464a28.5184 28.5184 0 1 0 0 57.0368z m-502.784 178.0736V176.3328a16.896 16.896 0 0 1 16.896-16.896h211.5584v-28.5184A28.5184 28.5184 0 0 0 359.3728 102.4H176.3328C135.5264 102.4 102.4 135.5264 102.4 176.3328v161.1776a28.5184 28.5184 0 0 0 57.0368 0z m199.936 506.0096H176.3328a16.896 16.896 0 0 1-16.896-16.896v-186.2656a28.5184 28.5184 0 0 0-57.0368 0v186.2656c0 40.8064 33.1264 73.9328 73.9328 73.9328H359.424a28.5184 28.5184 0 1 0 0-57.0368z m505.1904-203.1616v186.2656a16.896 16.896 0 0 1-16.896 16.896h-185.4464a28.5184 28.5184 0 1 0 0 57.0368h185.4464c40.8064 0 73.9328-33.1264 73.9328-73.9328v-186.2656a28.5184 28.5184 0 1 0-57.0368 0z" fill="#000000" p-id="7372"></path></svg>